<svg width="39" height="39" viewBox="0 0 39 39" fill="none" xmlns="http://www.w3.org/2000/svg">
<circle cx="19.5" cy="19.5" r="19.5" fill="#ECECEC"/>
<path d="M19.7476 16.4985C17.9572 16.4985 16.4962 17.9595 16.4962 19.7499C16.4962 21.5402 17.9572 23.0013 19.7476 23.0013C21.5379 23.0013 22.999 21.5402 22.999 19.7499C22.999 17.9595 21.5379 16.4985 19.7476 16.4985ZM29.4993 19.7499C29.4993 18.4035 29.5115 17.0693 29.4359 15.7253C29.3603 14.1642 29.0041 12.7788 27.8626 11.6373C26.7187 10.4933 25.3357 10.1396 23.7746 10.064C22.4282 9.98841 21.094 10.0006 19.75 10.0006C18.4036 10.0006 17.0694 9.98841 15.7254 10.064C14.1644 10.1396 12.7789 10.4958 11.6374 11.6373C10.4934 12.7812 10.1398 14.1642 10.0642 15.7253C9.98854 17.0717 10.0007 18.4059 10.0007 19.7499C10.0007 21.0938 9.98854 22.4305 10.0642 23.7745C10.1398 25.3355 10.4959 26.721 11.6374 27.8625C12.7814 29.0064 14.1644 29.3601 15.7254 29.4357C17.0718 29.5113 18.406 29.4992 19.75 29.4992C21.0964 29.4992 22.4306 29.5113 23.7746 29.4357C25.3357 29.3601 26.7211 29.004 27.8626 27.8625C29.0066 26.7185 29.3603 25.3355 29.4359 23.7745C29.5139 22.4305 29.4993 21.0963 29.4993 19.7499V19.7499ZM19.7476 24.7526C16.9791 24.7526 14.7449 22.5183 14.7449 19.7499C14.7449 16.9814 16.9791 14.7472 19.7476 14.7472C22.516 14.7472 24.7503 16.9814 24.7503 19.7499C24.7503 22.5183 22.516 24.7526 19.7476 24.7526ZM24.9552 15.7106C24.3088 15.7106 23.7868 15.1887 23.7868 14.5423C23.7868 13.8959 24.3088 13.3739 24.9552 13.3739C25.6015 13.3739 26.1235 13.8959 26.1235 14.5423C26.1237 14.6958 26.0936 14.8478 26.035 14.9896C25.9763 15.1315 25.8903 15.2603 25.7817 15.3689C25.6732 15.4774 25.5443 15.5635 25.4025 15.6221C25.2607 15.6808 25.1086 15.7108 24.9552 15.7106V15.7106Z" fill="#31352B"/>
</svg>
